# xmcd
# 
# Track frame offsets:
#	150
#	14937
#	28287
#	43062
#	53637
#	64662
#	77562
#	87537
#	97737
#	110037
#	122487
#	135612
#	147537
#	159462
#
# Disc length: 2314 seconds
#
# Revision: 1
# Processed by: cddbd v1.4PL0 Copyright (c) Steve Scherf et al.
# Submitted via: Audio-CD-Archiv 2.10.446
#
DISCID=c309080e
DTITLE=The Carter Family - Country by the Carter Family
DYEAR=1900
DGENRE=country
TTITLE0=Wildwood Flower
TTITLE1=Cannonball Blues
TTITLE2=The World Needs A Melody (with Johnny Cash)
TTITLE3=For Lovin' Me
TTITLE4=The Ship That Never Returned (Sara and Maybelle Carter)
TTITLE5=Behind Those Stone Walls
TTITLE6=I Walk The Line
TTITLE7=That'll Be The Day
TTITLE8=I'm So Lonesome I Could Cry
TTITLE9=He Thinks I Still Care
TTITLE10=I'm Thinking Tonight Of My Blue Eyes
TTITLE11=Ring Of Fire
TTITLE12=A Song To Mama (with Johnny Cash)
TTITLE13=Can The Circle Be Unbroken (Bye and Bye)
EXTD=
EXTT0=
EXTT1=
EXTT2=
EXTT3=
EXTT4=
EXTT5=
EXTT6=
EXTT7=
EXTT8=
EXTT9=
EXTT10=
EXTT11=
EXTT12=
EXTT13=
PLAYORDER=
